<svg width="26" height="26" viewBox="0 0 26 26" fill="none" xmlns="http://www.w3.org/2000/svg">
<path d="M21.5569 4.00177C21.284 4.01446 21.0269 4.09381 20.7984 4.18268H20.7952C20.5635 4.27472 19.4622 4.7381 17.7896 5.43951C16.117 6.1441 13.9461 7.05816 11.7911 7.96588C7.48736 9.77813 3.25665 11.5618 3.25665 11.5618L3.30743 11.5428C3.30743 11.5428 3.01544 11.638 2.71075 11.8475C2.55524 11.949 2.38385 12.0887 2.23468 12.3077C2.08551 12.5267 1.9649 12.8631 2.00934 13.209C2.08233 13.7962 2.46319 14.1485 2.73614 14.3421C3.01227 14.5389 3.27569 14.6309 3.27569 14.6309H3.28204L7.24933 15.9671C7.42706 16.5384 8.45856 19.928 8.70611 20.7088C8.85211 21.1754 8.99493 21.4673 9.17267 21.6895C9.25836 21.8038 9.35992 21.899 9.48053 21.9752C9.52814 22.0037 9.57892 22.0259 9.6297 22.045C9.64557 22.0545 9.66144 22.0577 9.68048 22.0608L9.63922 22.0513C9.65191 22.0545 9.66144 22.064 9.67096 22.0672C9.7027 22.0767 9.72491 22.0799 9.76617 22.0862C10.3946 22.2767 10.8992 21.8863 10.8992 21.8863L10.9278 21.8641L13.2701 19.7313L17.1961 22.7432L17.285 22.7813C18.1038 23.1399 18.9322 22.94 19.3702 22.5877C19.8113 22.2322 19.9827 21.7784 19.9827 21.7784L20.0113 21.7054L23.0455 6.16314C23.1312 5.77911 23.1534 5.42047 23.0582 5.07135C22.9629 4.72223 22.7186 4.39532 22.4234 4.22076C22.1251 4.04303 21.8299 3.98907 21.5569 4.00177ZM21.4744 5.66803C21.4713 5.71881 21.4808 5.71246 21.4586 5.81085V5.82037L18.4529 21.2007C18.4402 21.223 18.418 21.2706 18.3577 21.3182C18.2942 21.369 18.2435 21.4007 17.98 21.296L13.178 17.6143L10.2772 20.2581L10.8865 16.367C10.8865 16.367 18.4085 9.35601 18.7322 9.0545C19.056 8.75299 18.9481 8.68951 18.9481 8.68951C18.9703 8.32135 18.4593 8.5816 18.4593 8.5816L8.56647 14.7103L8.56329 14.6944L3.82159 13.098V13.0948C3.81842 13.0948 3.81207 13.0916 3.8089 13.0916C3.81207 13.0916 3.83429 13.0821 3.83429 13.0821L3.85968 13.0694L3.88507 13.0599C3.88507 13.0599 8.11896 11.2762 12.4227 9.46392C14.5777 8.55621 16.7486 7.64215 18.418 6.93756C20.0875 6.23614 21.3221 5.72198 21.3919 5.69342C21.4586 5.66803 21.4268 5.66803 21.4744 5.66803Z" fill="#A6A6A6"/>
</svg>
